<svg height="80px" viewBox="0 0 480.05577 480" width="72px" xmlns="http://www.w3.org/2000/svg"><path d="m464 342.109375v-22.082031h8c2.207031.015625 4.320312-.882813 5.839844-2.480469 1.359375-1.519531 2.128906-3.480469 2.160156-5.519531l-14.320312-272c-1.363282-22.015625-19.621094-39.175782-41.679688-39.175782s-40.316406 17.160157-41.679688 39.175782l-14.320312 272c-.066406 2.179687.707031 4.296875 2.160156 5.921875 1.585938 1.449219 3.691406 2.199219 5.839844 2.078125h8v22.082031l-15.121094 30.320313c-1.140625 2.261718-1.140625 4.933593 0 7.199218l48 96c.390625.882813.964844 1.671875 1.679688 2.320313.933594.863281 2.058594 1.496093 3.28125 1.839843h4.398437c1.226563-.34375 2.351563-.976562 3.28125-1.839843.71875-.648438 1.289063-1.4375 1.679688-2.320313l48-96c1.140625-2.265625 1.140625-4.9375 0-7.199218zm-79.601562-38.082031 3.363281-64h72.476562l3.761719 64zm13.921874-263.597656c0-14.183594 11.496094-25.683594 25.679688-25.683594s25.679688 11.5 25.679688 25.683594l9.679687 184h-70.71875l.878906-16h44.558594c4.421875 0 8-3.582032 8-8 0-4.421876-3.578125-8-8-8h-43.757813zm49.679688 279.597656v16h-48v-16zm-16 118.082031v-54.082031h8c4.417969 0 8-3.582032 8-8 0-4.417969-3.582031-8-8-8h-32c-4.417969 0-8 3.582031-8 8 0 4.417968 3.582031 8 8 8h8v54.082031l-31.039062-62.082031 12-24h54.078124l12 24zm0 0"/><path d="m272 104.027344c4.417969 0 8-3.582032 8-8 0-4.417969-3.582031-8-8-8h-208c-4.417969 0-8 3.582031-8 8v32c0 4.417968 3.582031 8 8 8h208c4.417969 0 8-3.582032 8-8 0-4.417969-3.582031-8-8-8h-200v-16zm0 0"/><path d="m280 176.027344c0-4.417969-3.582031-8-8-8h-176c-4.417969 0-8 3.582031-8 8 0 4.417968 3.582031 8 8 8h176c4.417969 0 8-3.582032 8-8zm0 0"/><path d="m48 216.027344c0 4.417968 3.582031 8 8 8h128c4.417969 0 8-3.582032 8-8 0-4.417969-3.582031-8-8-8h-128c-4.417969 0-8 3.582031-8 8zm0 0"/><path d="m232 208.027344c-4.417969 0-8 3.582031-8 8 0 4.417968 3.582031 8 8 8h32c4.417969 0 8-3.582032 8-8 0-4.417969-3.582031-8-8-8zm0 0"/><path d="m160 256.027344c0-4.417969-3.582031-8-8-8h-96c-4.417969 0-8 3.582031-8 8 0 4.417968 3.582031 8 8 8h96c4.417969 0 8-3.582032 8-8zm0 0"/><path d="m152 296.027344c0-4.417969-3.582031-8-8-8h-88c-4.417969 0-8 3.582031-8 8 0 4.417968 3.582031 8 8 8h88c4.417969 0 8-3.582032 8-8zm0 0"/><path d="m56 328.027344c-4.417969 0-8 3.582031-8 8 0 4.417968 3.582031 8 8 8h56c4.417969 0 8-3.582032 8-8 0-4.417969-3.582031-8-8-8zm0 0"/><path d="m312 .0273438h-288c-13.253906 0-24 10.7460942-24 24.0000002v368c0 13.253906 10.746094 24 24 24h136c4.417969 0 8-3.582032 8-8 0-4.417969-3.582031-8-8-8h-136c-4.417969 0-8-3.582032-8-8v-320h304v320c0 4.417968-3.582031 8-8 8h-24c-4.417969 0-8 3.582031-8 8 0 4.417968 3.582031 8 8 8h24c13.253906 0 24-10.746094 24-24v-368c0-13.253906-10.746094-24.0000002-24-24.0000002zm-296 56.0000002v-32c0-4.417969 3.582031-8 8-8h288c4.417969 0 8 3.582031 8 8v32zm0 0"/><path d="m224 296.027344c-13.253906 0-24 10.746094-24 24s10.746094 24 24 24 24-10.746094 24-24-10.746094-24-24-24zm0 32c-4.417969 0-8-3.582032-8-8 0-4.417969 3.582031-8 8-8s8 3.582031 8 8c0 4.417968-3.582031 8-8 8zm0 0"/><path d="m288 320.027344c-.011719-8.890625-4.933594-17.050782-12.800781-21.199219 2.617187-8.5.320312-17.746094-5.964844-24.035156-6.289063-6.285157-15.535156-8.582031-24.035156-5.964844-4.164063-7.84375-12.316407-12.75-21.199219-12.75s-17.035156 4.90625-21.199219 12.75c-8.5-2.617187-17.746093-.320313-24.035156 5.964844-6.285156 6.289062-8.582031 15.535156-5.964844 24.035156-7.847656 4.164063-12.75 12.316406-12.75 21.199219 0 8.882812 4.902344 17.039062 12.75 21.199218-2.617187 8.480469-.339843 17.710938 5.917969 24 1.5625 1.558594 3.339844 2.878907 5.28125 3.921876v102.878906c.015625 3.230468 1.972656 6.132812 4.960938 7.359375 2.976562 1.253906 6.417968.589843 8.71875-1.679688l26.320312-26.398437 26.320312 26.398437c1.507813 1.5 3.554688 2.332031 5.679688 2.320313 1.050781.027344 2.089844-.191406 3.039062-.640625 2.988282-1.226563 4.945313-4.128907 4.960938-7.359375v-102.800782c1.941406-1.042968 3.71875-2.363281 5.28125-3.917968 6.257812-6.292969 8.535156-15.519532 5.917969-24 7.890625-4.164063 12.820312-12.359375 12.800781-21.28125zm-58.320312 114.320312c-1.5-1.515625-3.546876-2.367187-5.679688-2.367187s-4.179688.851562-5.679688 2.367187l-18.320312 18.398438v-80.796875l2.800781-.722657c4.164063 7.847657 12.316407 12.75 21.199219 12.75s17.035156-4.902343 21.199219-12.75l2.800781.722657v80.796875zm34.320312-106.320312h-1.359375c-3.257813-.015625-6.203125 1.945312-7.441406 4.960937-1.230469 2.996094-.535157 6.4375 1.761719 8.71875l.960937.960938c3.101563 3.121093 3.101563 8.160156 0 11.28125-.882813.925781-1.984375 1.613281-3.203125 2h-1.199219c-2.519531.390625-5.074219-.441407-6.878906-2.242188l-.960937-.960937c-2.289063-2.304688-5.746094-3-8.746094-1.753906-3.003906 1.246093-4.953125 4.1875-4.933594 7.4375v1.597656c0 4.417968-3.582031 8-8 8s-8-3.582032-8-8v-1.359375c.015625-3.257813-1.945312-6.203125-4.960938-7.441407-.964843-.382812-2-.570312-3.039062-.558593-2.125-.011719-4.171875.824219-5.679688 2.320312l-.960937.960938c-1.804687 1.800781-4.359375 2.632812-6.878906 2.238281h-1.199219c-1.21875-.382812-2.320312-1.070312-3.203125-2-3.101563-3.121094-3.101563-8.160156 0-11.28125l1.042969-.957031c2.296875-2.285157 2.992187-5.726563 1.757812-8.722657-1.238281-3.011718-4.179687-4.976562-7.4375-4.957031h-1.441406c-4.417969 0-8-3.582031-8-8 0-4.421875 3.582031-8 8-8h1.359375c3.257813.015625 6.203125-1.949219 7.441406-4.960937 1.230469-2.996094.535157-6.4375-1.761719-8.722656l-.960937-.957032c-3.136719-3.117187-3.152344-8.183594-.039063-11.320312 3.117188-3.136719 8.183594-3.15625 11.320313-.039063l.960937 1.039063c2.28125 2.296875 5.726563 2.992187 8.71875 1.757812 3.015626-1.238281 4.976563-4.179687 4.960938-7.4375v-1.601562c0-4.417969 3.582031-8 8-8s8 3.582031 8 8v1.359375c-.015625 3.261719 1.945312 6.203125 4.960938 7.441406 2.992187 1.230469 6.4375.539063 8.71875-1.761719l.960937-.957031c3.113281-3.136719 8.183594-3.15625 11.320313-.042969 3.136718 3.117188 3.152343 8.183594.039062 11.320313l-1.039062.960937c-2.296876 2.28125-2.992188 5.726563-1.761719 8.71875 1.238281 3.015625 4.183593 4.976563 7.441406 4.960938h1.359375c4.417969 0 8 3.582031 8 8 0 4.417968-3.582031 8-8 8zm0 0"/></svg>